<svg width="60" height="60" viewBox="0 0 60 60" fill="none" xmlns="http://www.w3.org/2000/svg">
<rect width="60" height="60" rx="17" fill="#F4D8E9"/>
<path d="M16.6237 43.6836L16.5791 15.7752C16.5791 15.3445 16.9804 15 17.4263 15H18.0951C18.541 15 18.8531 15.3015 19.2098 15.646L36.3763 30.8693V31.5383V22.8861C36.3763 22.4554 36.733 22.0678 37.2234 22.0678H42.574C43.0199 22.0678 43.4212 22.4554 43.4212 22.8861V44.1573C43.4212 44.6741 43.0199 44.9325 42.574 44.9325H42.1281C41.6823 44.9325 41.3701 44.8033 41.0134 44.4588L23.624 29.594V43.6836C23.624 44.1142 23.2673 44.5019 22.7769 44.5019H17.4709C17.025 44.5019 16.6237 44.1142 16.6237 43.6836Z" fill="url(#paint0_linear)"/>
<defs>
<linearGradient id="paint0_linear" x1="34.6907" y1="7.30472" x2="16.354" y2="18.5139" gradientUnits="userSpaceOnUse">
<stop stop-color="#DD2678"/>
<stop offset="1" stop-color="#99277D"/>
</linearGradient>
</defs>
</svg>
